<svg xmlns="http://www.w3.org/2000/svg" width="1024" height="1024" viewBox="0 0 108 108">
  <rect width="108" height="108" fill="#F8FBFA"/>
  <path fill="#E9F7F4" d="M27,20h54c9.4,0 17,7.6 17,17v34c0,9.4 -7.6,17 -17,17h-54c-9.4,0 -17,-7.6 -17,-17v-34c0,-9.4 7.6,-17 17,-17z"/>
  <path fill="#CFF3EC" d="M34,30h40c6.6,0 12,5.4 12,12v24c0,6.6 -5.4,12 -12,12h-40c-6.6,0 -12,-5.4 -12,-12v-24c0,-6.6 5.4,-12 12,-12z"/>
  <path fill="#35C9B6" d="M31,65a5,5 0,0 1,5 -5h2a5,5 0,0 1,5 5v11h-12z"/>
  <path fill="#1DB2D5" d="M47,55a5,5 0,0 1,5 -5h2a5,5 0,0 1,5 5v21h-12z"/>
  <path fill="#22C777" d="M63,43a5,5 0,0 1,5 -5h2a5,5 0,0 1,5 5v33h-12z"/>
  <path fill="#15A8D1" fill-opacity="0.18" d="M22,78h64a6,6 0,0 1,-6 6h-52a6,6 0,0 1,-6 -6z"/>
  <path fill="none" stroke="#0F8F82" stroke-width="6" stroke-linecap="round" stroke-linejoin="round" d="M30,50L43,42L55,48L70,32L83,38"/>
  <path fill="#FFFFFF" d="M30,50m-5,0a5,5 0,1 0,10 0a5,5 0,1 0,-10 0"/>
  <path fill="#FFFFFF" d="M55,48m-5,0a5,5 0,1 0,10 0a5,5 0,1 0,-10 0"/>
  <path fill="#FFFFFF" d="M70,32m-5,0a5,5 0,1 0,10 0a5,5 0,1 0,-10 0"/>
  <path fill="#0F8F82" d="M30,50m-2.5,0a2.5,2.5 0,1 0,5 0a2.5,2.5 0,1 0,-5 0"/>
  <path fill="#0F8F82" d="M55,48m-2.5,0a2.5,2.5 0,1 0,5 0a2.5,2.5 0,1 0,-5 0"/>
  <path fill="#0F8F82" d="M70,32m-2.5,0a2.5,2.5 0,1 0,5 0a2.5,2.5 0,1 0,-5 0"/>
</svg>
